<mxfile host="app.diagrams.net" modified="2023-08-03T06:00:17.997Z" agent="Mozilla/5.0 (X11; Linux x86_64) AppleWebKit/537.36 (KHTML, like Gecko) Chrome/115.0.0.0 Safari/537.36" version="21.3.2" etag="ebn74f73afkveqnxt38Y" type="github">
  <diagram name="第 1 页" id="v0QMwy9obq1WQciNvNAc">
    <mxGraphModel>
      <root>
        <mxCell id="0" />
        <mxCell id="1" parent="0" />
      </root>
    </mxGraphModel>
  </diagram>
</mxfile>
